<?xml version="1.0" encoding="iso-8859-1"?>
<!-- Generator: Adobe Illustrator 19.0.0, SVG Export Plug-In . SVG Version: 6.00 Build 0)  -->
<svg version="1.1" id="Capa_1" xmlns="http://www.w3.org/2000/svg" xmlns:xlink="http://www.w3.org/1999/xlink" x="0px" y="0px"
	 viewBox="0 0 512 512" style="enable-background:new 0 0 512 512;" xml:space="preserve">
<path style="fill:#4398D1;" d="M88.276,0h335.448c14.627,0,26.483,11.855,26.483,26.483v459.034
	c0,14.627-11.855,26.483-26.483,26.483H88.276c-14.627,0-26.483-11.855-26.483-26.483V26.483C61.793,11.855,73.649,0,88.276,0z"/>
<path style="fill:#3E8CC7;" d="M63.559,494.769C67.39,505.106,77.25,511.982,88.276,512h335.448
	c14.627,0,26.483-11.855,26.483-26.483l0,0V180.374L63.559,494.769z"/>
<rect x="97.103" y="52.966" style="fill:#87CED9;" width="317.793" height="105.931"/>
<polygon style="fill:#6CBBC7;" points="181.884,158.897 414.897,158.897 414.897,52.966 329.525,52.966 "/>
<g>
	<path style="fill:#FDB62F;" d="M114.759,194.207h17.655c9.754,0,17.655,7.901,17.655,17.655l0,0
		c0,9.754-7.901,17.655-17.655,17.655h-17.655c-9.754,0-17.655-7.901-17.655-17.655l0,0
		C97.103,202.108,105.004,194.207,114.759,194.207z"/>
	<path style="fill:#FDB62F;" d="M203.034,194.207h17.655c9.754,0,17.655,7.901,17.655,17.655l0,0
		c0,9.754-7.901,17.655-17.655,17.655h-17.655c-9.754,0-17.655-7.901-17.655-17.655l0,0
		C185.379,202.108,193.28,194.207,203.034,194.207z"/>
	<path style="fill:#FDB62F;" d="M291.31,194.207h17.655c9.754,0,17.655,7.901,17.655,17.655l0,0c0,9.754-7.901,17.655-17.655,17.655
		H291.31c-9.754,0-17.655-7.901-17.655-17.655l0,0C273.655,202.108,281.556,194.207,291.31,194.207z"/>
	<path style="fill:#FDB62F;" d="M379.586,194.207h17.655c9.754,0,17.655,7.901,17.655,17.655l0,0
		c0,9.754-7.901,17.655-17.655,17.655h-17.655c-9.754,0-17.655-7.901-17.655-17.655l0,0
		C361.931,202.108,369.832,194.207,379.586,194.207z"/>
</g>
<g>
	<rect x="97.103" y="264.828" style="fill:#DE4C3C;" width="52.966" height="44.138"/>
	<rect x="97.103" y="344.276" style="fill:#DE4C3C;" width="52.966" height="44.138"/>
	<rect x="97.103" y="423.724" style="fill:#DE4C3C;" width="52.966" height="44.138"/>
	<rect x="185.379" y="264.828" style="fill:#DE4C3C;" width="52.966" height="44.138"/>
	<rect x="185.379" y="344.276" style="fill:#DE4C3C;" width="52.966" height="44.138"/>
	<rect x="185.379" y="423.724" style="fill:#DE4C3C;" width="52.966" height="44.138"/>
	<rect x="273.655" y="264.828" style="fill:#DE4C3C;" width="52.966" height="44.138"/>
	<rect x="273.655" y="344.276" style="fill:#DE4C3C;" width="52.966" height="44.138"/>
	<rect x="273.655" y="423.724" style="fill:#DE4C3C;" width="52.966" height="44.138"/>
	<rect x="361.931" y="264.828" style="fill:#DE4C3C;" width="52.966" height="44.138"/>
	<rect x="361.931" y="344.276" style="fill:#DE4C3C;" width="52.966" height="44.138"/>
	<rect x="361.931" y="423.724" style="fill:#DE4C3C;" width="52.966" height="44.138"/>
</g>
<g>
	<rect x="370.759" y="114.759" style="fill:#126099;" width="17.655" height="17.655"/>
	<rect x="335.448" y="114.759" style="fill:#126099;" width="17.655" height="17.655"/>
	<rect x="300.138" y="114.759" style="fill:#126099;" width="17.655" height="17.655"/>
	<rect x="264.828" y="114.759" style="fill:#126099;" width="17.655" height="17.655"/>
</g>
<g>
</g>
<g>
</g>
<g>
</g>
<g>
</g>
<g>
</g>
<g>
</g>
<g>
</g>
<g>
</g>
<g>
</g>
<g>
</g>
<g>
</g>
<g>
</g>
<g>
</g>
<g>
</g>
<g>
</g>
</svg>
