<?xml version="1.0" encoding="iso-8859-1"?>
<!-- Generator: Adobe Illustrator 19.0.0, SVG Export Plug-In . SVG Version: 6.00 Build 0)  -->
<svg version="1.1" id="Capa_1" xmlns="http://www.w3.org/2000/svg" xmlns:xlink="http://www.w3.org/1999/xlink" x="0px" y="0px"
	 viewBox="0 0 495.469 495.469" style="enable-background:new 0 0 495.469 495.469;" xml:space="preserve">
<g>
	<rect x="199.42" y="390.136" style="fill:#777777;" width="185.173" height="18.37"/>
	<rect x="364.564" y="159.597" style="fill:#777777;" width="18.37" height="125.58"/>
	<rect x="201.003" y="159.597" style="fill:#777777;" width="18.37" height="125.58"/>
</g>
<path style="fill:#ED6262;" d="M372.244,4.166c-53.357-5.554-107.132-5.554-160.489,0c-35.312,3.677-59.578,37.516-52.922,72.394
	c5.26,27.617,10.535,78.677,15.81,116.193c2.141,15.267,15.298,26.562,30.704,26.562h173.32c15.422,0,28.563-11.295,30.704-26.562
	c5.275-37.531,10.535-88.576,15.81-116.193C431.822,41.697,407.572,7.858,372.244,4.166z M330.989,45.188h-77.964
	c-6.423,0-11.621-5.198-11.621-11.621s5.198-11.621,11.621-11.621h77.964c6.423,0,11.621,5.198,11.621,11.621
	S337.412,45.188,330.989,45.188z"/>
<g>
	<rect x="186.295" y="333.971" style="fill:#FFBD49;" width="28.486" height="161.497"/>
	<rect x="369.218" y="333.971" style="fill:#FFBD49;" width="28.486" height="161.497"/>
</g>
<path style="fill:#CACACA;" d="M133.76,296.301c-15.577,0-29.37-10.473-33.559-25.476l-11.45-41.022
	c-6.222-22.326,10.581-44.234,33.575-44.234h35.793v-18.23H122.31c-35.235,0-60.571,33.575-51.138,67.367l11.45,41.007
	c6.377,22.854,27.4,38.803,51.122,38.803h127.069v-18.23H133.76V296.301z"/>
<path style="fill:#ED6262;" d="M398.278,276.938H185.736c-15.469,0-28.005,12.536-28.005,28.005v0.977
	c0,15.469,12.536,28.005,28.005,28.005h212.542c15.469,0,28.005-12.536,28.005-28.005v-0.977
	C426.267,289.458,413.747,276.938,398.278,276.938z"/>
<path style="fill:#FFBD49;" d="M316.001,156.23H136.894c-11.171,0-20.247,9.061-20.247,20.247s9.061,20.247,20.247,20.247h179.107
	c11.186,0,20.247-9.061,20.247-20.247C336.233,165.291,327.172,156.23,316.001,156.23z"/>
<path style="fill:#E25D5D;" d="M372.29,4.104c-53.372-5.43-107.21-5.43-160.582,0c-28.082,2.948-49.183,24.979-53.217,51.51
	c0,0,0,0,0.155,0c6.672-0.155,12.412,4.81,12.412,11.481v41.581c0,7.447,5.43,14.119,12.878,14.584
	c7.913,0.31,14.429-5.741,14.584-13.498V64.613c0-7.913,6.516-14.119,14.584-13.808c7.447,0.465,13.033,7.137,13.033,14.584v36.771
	c0.155,7.137,5.741,13.653,13.033,14.119c7.913,0.31,14.429-6.051,14.429-13.964l0.155-37.236c0-7.913,6.516-14.274,14.584-13.964
	c7.292,0.465,13.033,7.137,13.033,14.739v39.719c0.155,7.447,6.361,13.498,13.653,13.498c7.758,0,13.964-6.361,13.964-13.964V65.389
	c0-6.361,5.12-11.481,11.636-11.481c8.595,0,12.567,4.996,12.567,10.861v45.615c0,7.602,5.585,14.119,13.033,14.584
	c7.913,0.31,14.584-5.896,14.584-13.808V68.957c0-6.361,5.275-11.481,11.481-11.481c8.533,0,13.343,5.787,13.343,12.102v35.53
	c0,7.447,5.585,14.274,13.033,14.584c7.913,0.465,14.584-5.896,14.584-13.808V67.095c0-6.672,5.585-11.636,12.257-11.481
	C421.473,29.083,400.373,7.052,372.29,4.104z M331.02,45.219h-78.041c-6.361,0-11.636-5.275-11.636-11.636
	s5.275-11.636,11.636-11.636h78.041c6.361,0,11.636,5.275,11.636,11.636S337.381,45.219,331.02,45.219z"/>
<g>
</g>
<g>
</g>
<g>
</g>
<g>
</g>
<g>
</g>
<g>
</g>
<g>
</g>
<g>
</g>
<g>
</g>
<g>
</g>
<g>
</g>
<g>
</g>
<g>
</g>
<g>
</g>
<g>
</g>
</svg>
