<?xml version="1.0" encoding="iso-8859-1"?>
<!-- Generator: Adobe Illustrator 19.0.0, SVG Export Plug-In . SVG Version: 6.00 Build 0)  -->
<svg version="1.1" id="Layer_1" xmlns="http://www.w3.org/2000/svg" xmlns:xlink="http://www.w3.org/1999/xlink" x="0px" y="0px"
	 viewBox="0 0 512 512" style="enable-background:new 0 0 512 512;" xml:space="preserve">
<g>
	<path style="fill:#B2B5C8;" d="M411.608,501.961h-261.02c-11.093,0-20.078-8.985-20.078-20.078
		c0-11.093,8.985-20.078,20.078-20.078h261.02c11.093,0,20.078,8.985,20.078,20.078
		C431.686,492.976,422.701,501.961,411.608,501.961"/>
	<g>
		<path style="fill:#868BA5;" d="M321.255,421.647c0-22.177-17.98-40.157-40.157-40.157s-40.157,17.98-40.157,40.157
			c0,22.177,17.98,40.157,40.157,40.157S321.255,443.824,321.255,421.647"/>
		<path style="fill:#868BA5;" d="M512,230.902c0-22.177-17.98-40.157-40.157-40.157c-22.177,0-40.157,17.98-40.157,40.157
			s17.98,40.157,40.157,40.157C494.02,271.059,512,253.079,512,230.902"/>
	</g>
	<path style="fill:#B2B5C8;" d="M433.106,240.938L290.037,382.571l0,0c2.741,0.622,5.361,1.546,7.851,2.701
		c0.211,0.1,0.402,0.231,0.612,0.331c2.309,1.124,4.488,2.44,6.525,3.965c0.131,0.09,0.241,0.201,0.361,0.291
		c2.108,1.616,4.036,3.433,5.793,5.431c0.01,0.01,0.02,0.02,0.02,0.03c1.827,2.088,3.413,4.347,4.779,6.786
		c1.827,3.263,3.303,6.746,4.166,10.491L461.346,269.5C447.502,265.735,436.71,254.842,433.106,240.938"/>
	<path style="fill:#868BA5;" d="M261.02,90.353H40.157C17.98,90.353,0,72.373,0,50.196s17.98-40.157,40.157-40.157H261.02
		c22.177,0,40.157,17.98,40.157,40.157S283.196,90.353,261.02,90.353"/>
	<path style="fill:#B2B5C8;" d="M298.673,36.665c1.526,4.247,2.5,8.754,2.5,13.533c0,12.539-5.863,23.602-14.878,30.961
		l146.874,139.505c3.765-14.216,15.009-25.289,29.345-28.722L298.673,36.665z"/>
	<g>
		<path style="fill:#ECBA16;" d="M150.588,200.784c-5.542,0-10.039-4.498-10.039-10.039v-50.196c0-5.542,4.498-10.039,10.039-10.039
			s10.039,4.498,10.039,10.039v50.196C160.627,196.287,156.13,200.784,150.588,200.784"/>
		<path style="fill:#ECBA16;" d="M40.152,200.789c-1.245,0-2.5-0.231-3.725-0.723c-5.15-2.058-7.65-7.901-5.592-13.051
			l20.078-50.196c2.058-5.14,7.871-7.65,13.051-5.592c5.15,2.058,7.65,7.901,5.592,13.051l-20.078,50.196
			C47.902,198.4,44.137,200.789,40.152,200.789"/>
		<path style="fill:#ECBA16;" d="M250.985,200.789c-3.986,0-7.75-2.389-9.326-6.315l-20.078-50.196
			c-2.058-5.15,0.442-10.993,5.592-13.051c5.17-2.038,10.993,0.452,13.051,5.592l20.078,50.196
			c2.058,5.15-0.442,10.993-5.592,13.051C253.485,200.558,252.23,200.789,250.985,200.789"/>
	</g>
</g>
<g>
</g>
<g>
</g>
<g>
</g>
<g>
</g>
<g>
</g>
<g>
</g>
<g>
</g>
<g>
</g>
<g>
</g>
<g>
</g>
<g>
</g>
<g>
</g>
<g>
</g>
<g>
</g>
<g>
</g>
</svg>
