<?xml version="1.0" encoding="iso-8859-1"?>
<!-- Generator: Adobe Illustrator 19.0.0, SVG Export Plug-In . SVG Version: 6.00 Build 0)  -->
<svg version="1.1" id="Capa_1" xmlns="http://www.w3.org/2000/svg" xmlns:xlink="http://www.w3.org/1999/xlink" x="0px" y="0px"
	 viewBox="0 0 416 416" style="enable-background:new 0 0 416 416;" xml:space="preserve">
<path style="fill:#29ABE2;" d="M208,0L208,0c70.692,0,128,57.308,128,128v160c0,70.692-57.308,128-128,128l0,0
	c-70.692,0-128-57.308-128-128V128C80,57.308,137.308,0,208,0z"/>
<g>
	<rect x="200" style="fill:#0071BC;" width="16" height="224"/>
	<rect x="200" y="240" style="fill:#0071BC;" width="16" height="16"/>
</g>
<path style="fill:#FBB03B;" d="M208,64L208,64c13.255,0,24,10.745,24,24v56c0,13.255-10.745,24-24,24l0,0c-13.255,0-24-10.745-24-24
	V88C184,74.745,194.745,64,208,64z"/>
<path style="fill:#CCCCCC;" d="M291.24,234.816l-6.856,61.76c-2.752,24.733-17.309,46.604-39.064,58.688l0,0
	c-23.207,12.903-51.433,12.903-74.64,0l0,0c-21.755-12.084-36.312-33.955-39.064-58.688l-6.856-61.76
	C121.831,208.455,104.627,185.848,80,176v112c0,70.692,57.308,128,128,128s128-57.308,128-128V176
	C311.373,185.848,294.169,208.455,291.24,234.816z"/>
<g>
</g>
<g>
</g>
<g>
</g>
<g>
</g>
<g>
</g>
<g>
</g>
<g>
</g>
<g>
</g>
<g>
</g>
<g>
</g>
<g>
</g>
<g>
</g>
<g>
</g>
<g>
</g>
<g>
</g>
</svg>
