<?xml version="1.0" encoding="iso-8859-1"?>
<!-- Generator: Adobe Illustrator 19.0.0, SVG Export Plug-In . SVG Version: 6.00 Build 0)  -->
<svg version="1.1" id="Capa_1" xmlns="http://www.w3.org/2000/svg" xmlns:xlink="http://www.w3.org/1999/xlink" x="0px" y="0px"
	 viewBox="0 0 512 512" style="enable-background:new 0 0 512 512;" xml:space="preserve">
<path style="fill:#FDB62F;" d="M406.069,0L0,406.069L105.931,512L512,105.931L406.069,0z M414.897,114.759
	c-9.754,0-17.655-7.901-17.655-17.655s7.901-17.655,17.655-17.655s17.655,7.901,17.655,17.655S424.651,114.759,414.897,114.759z"/>
<g>
	
		<rect x="331.037" y="73.976" transform="matrix(-0.7071 0.7071 -0.7071 -0.7071 645.7358 -82.0658)" style="fill:#DE4C3C;" width="17.655" height="37.455"/>
	
		<rect x="308.969" y="98.628" transform="matrix(-0.7071 0.7071 -0.7071 -0.7071 629.9079 -13.7236)" style="fill:#DE4C3C;" width="17.655" height="49.937"/>
	
		<rect x="278.062" y="126.934" transform="matrix(-0.7071 0.7071 -0.7071 -0.7071 592.7502 45.7985)" style="fill:#DE4C3C;" width="17.655" height="37.455"/>
	
		<rect x="255.991" y="151.565" transform="matrix(-0.7071 0.7071 -0.7071 -0.7071 576.901 114.1068)" style="fill:#DE4C3C;" width="17.655" height="49.937"/>
	
		<rect x="225.1" y="179.895" transform="matrix(-0.7071 0.7071 -0.7071 -0.7071 539.786 173.6591)" style="fill:#DE4C3C;" width="17.655" height="37.455"/>
	
		<rect x="203.016" y="204.541" transform="matrix(-0.7071 0.7071 -0.7071 -0.7071 523.9279 242.0012)" style="fill:#DE4C3C;" width="17.655" height="49.937"/>
	
		<rect x="172.123" y="232.86" transform="matrix(-0.7071 0.7071 -0.7071 -0.7071 486.8004 301.5358)" style="fill:#DE4C3C;" width="17.655" height="37.455"/>
	
		<rect x="150.051" y="257.5" transform="matrix(-0.7071 0.7071 -0.7071 -0.7071 470.9574 369.8593)" style="fill:#DE4C3C;" width="17.655" height="49.937"/>
	
		<rect x="119.157" y="285.827" transform="matrix(-0.7071 0.7071 -0.7071 -0.7071 433.8362 429.4089)" style="fill:#DE4C3C;" width="17.655" height="37.455"/>
	
		<rect x="97.094" y="310.476" transform="matrix(-0.7071 0.7071 -0.7071 -0.7071 418.0144 497.7411)" style="fill:#DE4C3C;" width="17.655" height="49.937"/>
	
		<rect x="66.198" y="338.801" transform="matrix(-0.7071 0.7071 -0.7071 -0.7071 380.8869 557.2882)" style="fill:#DE4C3C;" width="17.655" height="37.455"/>
	
		<rect x="44.129" y="363.434" transform="matrix(-0.7071 0.7071 -0.7071 -0.7071 365.0439 625.5991)" style="fill:#DE4C3C;" width="17.655" height="49.937"/>
</g>
<path style="fill:#FFA83D;" d="M427.379,84.621c7.018,6.771,7.212,17.946,0.433,24.964c-6.771,7.018-17.946,7.212-24.964,0.433
	c-0.15-0.141-0.291-0.291-0.433-0.433L52.966,459.034L105.931,512L512,105.931l-52.966-52.966L427.379,84.621z"/>
<g>
</g>
<g>
</g>
<g>
</g>
<g>
</g>
<g>
</g>
<g>
</g>
<g>
</g>
<g>
</g>
<g>
</g>
<g>
</g>
<g>
</g>
<g>
</g>
<g>
</g>
<g>
</g>
<g>
</g>
</svg>
